<?xml version="1.0" standalone="no"?>
<!DOCTYPE svg PUBLIC "-//W3C//DTD SVG 20010904//EN"
 "http://www.w3.org/TR/2001/REC-SVG-20010904/DTD/svg10.dtd">
<svg version="1.0" xmlns="http://www.w3.org/2000/svg"
 width="288.000000pt" height="288.000000pt" viewBox="0 0 288.000000 288.000000"
 preserveAspectRatio="xMidYMid meet">
<metadata>
Created by potrace 1.11, written by Peter Selinger 2001-2013
</metadata>
<g transform="translate(0.000000,288.000000) scale(0.100000,-0.100000)"
fill="#000000" stroke="none">
<path d="M1370 2470 c0 -3 -36 -4 -80 -3 -66 3 -78 0 -74 -11 3 -8 12 -12 20
-9 8 3 14 1 14 -5 0 -16 -31 -7 -42 11 -5 9 -14 17 -19 17 -6 0 -7 -4 -4 -10
3 -5 1 -10 -4 -10 -6 0 -11 4 -11 8 0 11 -71 9 -87 -1 -8 -5 -13 -3 -14 5 0 7
-4 4 -9 -7 -5 -11 -9 -14 -9 -7 -1 15 -33 16 -48 1 -8 -8 -13 -8 -17 0 -4 6
-12 11 -17 11 -6 0 -7 -4 -4 -10 3 -5 2 -10 -4 -10 -5 0 -12 6 -14 13 -3 7 -6
8 -6 1 -1 -6 -12 -9 -26 -6 -14 2 -33 -2 -42 -9 -12 -10 -14 -10 -9 -1 4 6 2
12 -3 12 -6 0 -11 -5 -11 -11 0 -8 -4 -8 -13 -1 -7 6 -18 7 -26 3 -7 -5 -23
-7 -37 -5 -13 1 -24 -1 -24 -5 0 -4 -15 -6 -32 -6 -18 1 -37 -1 -43 -4 -5 -3
-19 -7 -29 -8 -33 -5 -71 -29 -68 -42 1 -7 5 -40 8 -74 2 -34 7 -82 10 -107 3
-25 7 -67 9 -95 4 -52 13 -125 20 -160 2 -11 4 -35 4 -53 1 -24 5 -31 14 -26
9 6 9 5 0 -8 -7 -8 -10 -18 -7 -21 3 -3 8 -27 9 -54 2 -26 6 -58 9 -70 3 -14
0 -23 -7 -23 -7 0 -6 -4 3 -10 8 -5 11 -10 5 -10 -5 0 -3 -5 5 -11 11 -8 12
-12 3 -16 -9 -3 -8 -11 5 -31 9 -14 11 -23 5 -19 -7 5 -13 4 -13 -2 0 -6 5
-11 10 -11 6 0 10 -5 10 -11 0 -5 -5 -7 -11 -3 -8 5 -8 1 0 -13 6 -11 7 -23 4
-27 -3 -3 0 -6 7 -6 9 0 7 -5 -6 -15 -16 -13 -16 -14 -1 -9 20 7 22 -6 5 -25
-10 -11 -10 -13 0 -7 6 4 12 3 12 -3 0 -5 -6 -12 -12 -14 -8 -3 -5 -6 5 -6 12
-1 16 -5 10 -13 -12 -20 -12 -39 0 -31 7 4 8 0 3 -12 -4 -10 -3 -21 2 -24 5
-3 12 -26 16 -51 4 -31 3 -40 -4 -30 -15 23 -12 6 5 -26 17 -34 22 -70 5 -44
-5 8 -10 10 -10 5 0 -6 5 -16 12 -23 15 -15 22 -56 8 -47 -6 3 -7 -1 -4 -9 3
-9 9 -16 13 -16 4 0 8 -11 9 -25 1 -14 -4 -25 -11 -25 -8 0 -7 -4 3 -10 8 -5
11 -10 7 -10 -4 0 -3 -10 4 -21 8 -15 8 -19 0 -15 -6 4 -11 2 -11 -3 0 -6 5
-11 11 -11 7 0 9 -10 7 -25 -3 -14 -1 -25 3 -25 5 0 9 -9 9 -21 0 -13 -4 -18
-12 -13 -8 5 -8 1 1 -10 8 -9 15 -30 16 -44 1 -15 5 -34 10 -41 6 -10 4 -12
-6 -6 -11 7 -12 6 -3 -6 6 -8 10 -34 8 -58 -3 -29 1 -50 11 -60 8 -9 17 -37
20 -61 18 -152 37 -240 48 -233 6 4 7 1 3 -6 -10 -16 33 -81 87 -131 57 -54
177 -112 282 -136 42 -10 405 -13 457 -4 138 24 254 78 330 153 72 72 88 103
103 209 3 21 13 78 22 126 8 48 16 101 18 117 2 17 5 46 8 65 3 19 9 55 12 80
3 25 7 52 9 60 1 8 6 38 10 65 4 28 10 61 12 75 6 32 17 121 17 138 0 6 3 12
6 12 3 0 7 17 8 38 4 72 8 102 14 102 3 0 5 16 4 35 -2 19 1 37 5 40 4 2 6 17
4 32 -1 15 0 31 3 37 4 5 8 24 9 40 3 37 32 261 38 294 3 13 0 22 -7 22 -9 0
-9 2 0 8 6 4 14 25 17 47 3 22 10 77 17 122 6 46 9 90 5 98 -3 9 -2 14 2 11 5
-3 10 12 11 32 1 20 3 51 5 67 19 134 18 153 -2 164 -13 7 -23 7 -32 -2 -7 -7
-10 -7 -7 -2 3 6 -10 15 -28 21 -19 6 -32 7 -29 2 3 -4 0 -8 -5 -8 -6 0 -11 4
-11 8 0 10 -9 12 -72 15 -27 1 -48 4 -48 7 0 3 -9 6 -20 7 -13 1 -18 -2 -13
-10 4 -8 1 -7 -9 1 -10 8 -50 14 -107 15 -50 1 -91 4 -91 7 0 7 -45 9 -303 12
-125 2 -227 1 -227 -2z m-206 -28 c3 -5 -1 -9 -9 -9 -8 0 -12 4 -9 9 3 4 7 8
9 8 2 0 6 -4 9 -8z m340 0 c3 -5 -1 -9 -9 -9 -8 0 -12 4 -9 9 3 4 7 8 9 8 2 0
6 -4 9 -8z m-494 -24 c0 -4 -4 -8 -9 -8 -6 0 -12 4 -15 8 -3 5 1 9 9 9 8 0 15
-4 15 -9z m119 -22 c-3 -3 -11 5 -18 17 -13 21 -12 21 5 5 10 -10 16 -20 13
-22z m959 22 c-2 -7 3 -12 10 -10 8 1 11 -2 7 -8 -5 -8 -11 -8 -21 1 -7 6 -11
15 -8 20 8 13 14 11 12 -3z m107 2 c-3 -5 -12 -10 -18 -10 -7 0 -6 4 3 10 19
12 23 12 15 0z m-1404 -17 c13 -16 12 -17 -3 -4 -10 7 -18 15 -18 17 0 8 8 3
21 -13z m289 2 c-7 -9 -20 -13 -28 -10 -8 3 -22 0 -31 -7 -14 -12 -15 -11 -2
5 8 10 21 15 32 12 9 -3 20 -1 24 5 3 5 9 10 12 10 3 0 0 -7 -7 -15z m148 -10
c-3 -3 -9 2 -12 12 -6 14 -5 15 5 6 7 -7 10 -15 7 -18z m-514 3 c-3 -4 -9 -8
-15 -8 -5 0 -9 4 -9 8 0 5 7 9 15 9 8 0 12 -4 9 -9z m30 -4 c3 -8 2 -12 -4 -9
-6 3 -10 10 -10 16 0 14 7 11 14 -7z m602 4 c3 -4 -1 -5 -10 -4 -8 1 -18 5
-22 8 -3 4 1 5 10 4 8 -1 18 -5 22 -8z m128 0 c-3 -4 -9 -8 -15 -8 -5 0 -9 4
-9 8 0 5 7 9 15 9 8 0 12 -4 9 -9z m-623 -21 c-6 -8 -8 -16 -5 -19 3 -3 1 -9
-4 -12 -6 -3 -9 0 -8 6 2 16 15 38 23 38 3 0 0 -6 -6 -13z m323 5 c3 -5 -1 -9
-9 -9 -8 0 -15 4 -15 9 0 4 4 8 9 8 6 0 12 -4 15 -8z m820 -21 c14 -15 15 -21
4 -27 -7 -4 -10 -3 -5 1 4 5 0 17 -10 27 -9 10 -14 18 -11 18 3 0 13 -9 22
-19z m-1260 -3 c-3 -4 -9 -8 -15 -8 -5 0 -9 4 -9 8 0 5 7 9 15 9 8 0 12 -4 9
-9z m173 -3 c0 -8 -4 -12 -9 -9 -4 3 -8 9 -8 15 0 5 4 9 8 9 5 0 9 -7 9 -15z
m143 5 c0 -5 -5 -10 -11 -10 -5 0 -7 5 -4 10 3 6 8 10 11 10 2 0 4 -4 4 -10z
m40 6 c0 -2 -7 -7 -16 -10 -8 -3 -12 -2 -9 4 6 10 25 14 25 6z m869 -10 c9
-11 9 -16 -1 -22 -7 -4 -10 -4 -6 1 4 4 3 14 -3 22 -6 7 -9 13 -6 13 2 0 10
-6 16 -14z m102 -3 c13 -16 12 -17 -3 -4 -10 7 -18 15 -18 17 0 8 8 3 21 -13z
m159 11 c0 -8 -19 -13 -24 -6 -3 5 1 9 9 9 8 0 15 -2 15 -3z m-969 -21 c13
-16 12 -17 -3 -4 -17 13 -22 21 -14 21 2 0 10 -8 17 -17z m79 -5 c0 -4 -4 -8
-9 -8 -6 0 -12 4 -15 8 -3 5 1 9 9 9 8 0 15 -4 15 -9z m116 -14 c1 -9 0 -13
-4 -10 -3 4 -7 14 -8 22 -1 9 0 13 4 10 3 -4 7 -14 8 -22z m44 14 c0 -4 -4 -8
-9 -8 -6 0 -12 4 -15 8 -3 5 1 9 9 9 8 0 15 -4 15 -9z m677 6 c-3 -3 -12 -4
-19 -1 -8 3 -5 6 6 6 11 1 17 -2 13 -5z m-797 -18 c0 -2 -7 -7 -16 -10 -8 -3
-12 -2 -9 4 6 10 25 14 25 6z m645 -1766 c-3 -5 -12 -10 -18 -10 -7 0 -6 4 3
10 19 12 23 12 15 0z"/>
</g>
</svg>
